<?xml version="1.0" standalone="no"?>
<!DOCTYPE svg PUBLIC "-//W3C//DTD SVG 20010904//EN"
 "http://www.w3.org/TR/2001/REC-SVG-20010904/DTD/svg10.dtd">
<svg version="1.0" xmlns="http://www.w3.org/2000/svg"
 width="700.000000pt" height="700.000000pt" viewBox="0 0 700.000000 700.000000"
 preserveAspectRatio="xMidYMid meet">
<metadata>
Created by potrace 1.14, written by Peter Selinger 2001-2017
</metadata>
<g transform="translate(0.000000,700.000000) scale(0.100000,-0.100000)"
fill="#000000" stroke="none">
<path d="M3930 6264 c-556 -51 -963 -172 -1845 -549 -853 -365 -1179 -647
-1350 -1170 -69 -210 -95 -390 -95 -657 0 -406 84 -761 270 -1135 232 -468
511 -771 1150 -1250 411 -307 641 -457 873 -568 229 -109 407 -155 606 -155
307 0 560 85 1166 390 689 348 913 487 1125 700 364 367 453 824 350 1805 -90
858 -270 1408 -613 1872 -90 122 -297 334 -401 410 -204 151 -439 246 -711
288 -97 15 -433 27 -525 19z m621 -1399 c126 -16 421 -64 428 -71 2 -2 -5 -87
-14 -189 l-18 -187 -41 6 c-215 31 -627 56 -731 46 -144 -15 -227 -57 -265
-134 -30 -62 -30 -147 -1 -205 37 -71 97 -102 441 -221 243 -84 325 -119 418
-177 199 -124 271 -281 259 -568 -9 -222 -58 -347 -187 -476 -107 -108 -218
-166 -395 -206 -95 -21 -361 -21 -523 1 -118 16 -470 80 -477 88 -4 4 42 358
47 363 2 1 48 -3 103 -11 392 -51 707 -57 802 -15 69 31 127 95 147 162 32
105 13 204 -50 263 -46 43 -154 89 -364 156 -322 103 -469 177 -573 290 -101
109 -141 227 -140 420 1 186 37 313 124 428 43 57 133 129 211 168 64 32 206
72 298 84 96 11 341 4 501 -15z m-1678 -837 c3 -1170 2 -1252 -18 -1350 -56
-285 -207 -385 -622 -413 l-93 -7 0 210 0 209 63 5 c85 7 141 37 169 91 l23
42 3 1018 2 1017 235 0 235 0 3 -822z"/>
</g>
</svg>
