<?xml version="1.0" standalone="no"?>
<!DOCTYPE svg PUBLIC "-//W3C//DTD SVG 20010904//EN"
 "http://www.w3.org/TR/2001/REC-SVG-20010904/DTD/svg10.dtd">
<svg version="1.0" xmlns="http://www.w3.org/2000/svg"
 width="700.000000pt" height="700.000000pt" viewBox="0 0 700.000000 700.000000"
 preserveAspectRatio="xMidYMid meet">
<metadata>
Created by potrace 1.14, written by Peter Selinger 2001-2017
</metadata>
<g transform="translate(0.000000,700.000000) scale(0.100000,-0.100000)"
fill="#000000" stroke="none">
<path d="M3850 6253 c-110 -9 -383 -57 -527 -93 -341 -84 -651 -198 -1333
-490 -437 -187 -742 -377 -934 -580 -520 -553 -557 -1591 -88 -2445 204 -371
481 -669 972 -1046 644 -495 1010 -709 1351 -791 78 -18 122 -22 254 -22 138
0 176 4 278 28 282 65 525 171 1162 504 467 244 676 383 856 569 210 216 308
435 361 803 17 125 15 558 -5 780 -37 405 -86 734 -148 990 -200 832 -654
1455 -1228 1685 -108 43 -262 81 -409 100 -104 14 -433 18 -562 8z m648 -1378
c134 -15 479 -69 487 -77 5 -5 -34 -370 -40 -376 -2 -3 -105 6 -227 19 -147
15 -289 23 -418 23 -182 1 -199 -1 -253 -22 -31 -13 -71 -35 -89 -50 -87 -74
-91 -230 -6 -309 37 -34 155 -85 379 -161 322 -111 441 -169 547 -267 112
-104 154 -226 154 -450 0 -161 -19 -254 -77 -370 -83 -169 -249 -291 -473
-348 -76 -19 -111 -22 -287 -21 -131 1 -238 7 -310 18 -117 17 -437 77 -444
83 -4 3 39 364 44 371 1 1 105 -9 231 -24 292 -34 583 -39 654 -11 110 44 163
107 181 218 29 181 -49 250 -404 359 -457 140 -623 254 -704 486 -25 72 -27
92 -28 229 0 168 13 233 67 345 47 98 159 206 268 258 80 38 211 76 290 85 90
10 325 6 458 -8z m-1620 -1092 c-3 -1061 -3 -1068 -25 -1145 -38 -134 -83
-205 -166 -262 -95 -65 -241 -103 -440 -113 l-117 -6 2 208 3 209 72 12 c96
16 132 38 163 99 l25 50 3 1008 3 1007 240 0 240 0 -3 -1067z"/>
</g>
</svg>
