<svg width="15" height="26" viewBox="0 0 20 31" fill="none" xmlns="http://www.w3.org/2000/svg">
<path d="M6.36364 21.2784V20.7955C6.37311 19.1383 6.51989 17.8172 6.80398 16.8324C7.09754 15.8475 7.52367 15.0521 8.08239 14.446C8.6411 13.84 9.31345 13.2907 10.0994 12.7983C10.6866 12.4195 11.2121 12.0265 11.6761 11.6193C12.1402 11.2121 12.5095 10.7623 12.7841 10.2699C13.0587 9.76799 13.196 9.20928 13.196 8.59375C13.196 7.94034 13.0398 7.36742 12.7273 6.875C12.4148 6.38258 11.9934 6.00379 11.4631 5.73864C10.9422 5.47348 10.3646 5.34091 9.73011 5.34091C9.11458 5.34091 8.5322 5.47822 7.98295 5.75284C7.43371 6.01799 6.9839 6.41572 6.63352 6.94602C6.28314 7.46686 6.09375 8.11553 6.06534 8.89205H0.269886C0.317235 6.99811 0.77178 5.43561 1.63352 4.20455C2.49527 2.96402 3.63636 2.04072 5.05682 1.43466C6.47727 0.819128 8.04451 0.511363 9.75852 0.511363C11.643 0.511363 13.3097 0.823863 14.7585 1.44886C16.2074 2.06439 17.3438 2.95928 18.1676 4.13352C18.9915 5.30776 19.4034 6.72348 19.4034 8.38068C19.4034 9.48864 19.2188 10.4735 18.8494 11.3352C18.4896 12.1875 17.983 12.9451 17.3295 13.608C16.6761 14.2614 15.9044 14.8532 15.0142 15.3835C14.2661 15.8286 13.6506 16.2926 13.1676 16.7756C12.6941 17.2585 12.339 17.8172 12.1023 18.4517C11.875 19.0862 11.7566 19.8674 11.7472 20.7955V21.2784H6.36364ZM9.17614 30.3693C8.22917 30.3693 7.41951 30.0379 6.74716 29.375C6.08428 28.7027 5.75758 27.8977 5.76705 26.9602C5.75758 26.0322 6.08428 25.2367 6.74716 24.5739C7.41951 23.911 8.22917 23.5795 9.17614 23.5795C10.0758 23.5795 10.8665 23.911 11.5483 24.5739C12.2301 25.2367 12.5758 26.0322 12.5852 26.9602C12.5758 27.5852 12.41 28.1581 12.0881 28.679C11.7756 29.1903 11.3636 29.6023 10.8523 29.9148C10.3409 30.2178 9.7822 30.3693 9.17614 30.3693Z" fill="#272932"/>
</svg>
